# AST/ASF file generated using VICON BodyLanguage
# -----------------------------------------------
:version 1.10
:name VICON
:units
  mass 1.0
  length 0.45
  angle deg
:documentation
   .ast/.asf automatically generated from VICON data using
   VICON BodyBuilder and BodyLanguage model FoxedUp or BRILLIANT.MOD
:root
   order TX TY TZ RX RY RZ
   axis XYZ
   position 0 0 0  
   orientation 0 0 0 
:bonedata
  begin
     id 1 
     name lhipjoint
     direction 0.589753 -0.68606 0.426044 
     length 2.54082 
     axis 0 0 0  XYZ
  end
  begin
     id 2 
     name lfemur
     direction 0.34202 -0.939693 0  
     length 7.04539  
     axis 0 0 20  XYZ
    dof rx ry rz
    limits (-160.0 20.0)
           (-70.0 70.0)
           (-60.0 70.0)
  end
  begin
     id 3 
     name ltibia
     direction 0.34202 -0.939693 0   
     length 7.83772   
     axis 0 0 20   XYZ
    dof rx
    limits (-10.0 170.0)
  end
  begin
     id 4 
     name lfoot
     direction 0.0596604 -0.163915 0.984669   
     length 2.39542   
     axis -90 7.62852e-016 20   XYZ
    dof rx rz
    limits (-45.0 90.0)
           (-70.0 20.0)
  end
  begin
     id 5 
     name ltoes
     direction 1.53514e-011 -4.21954e-011 1   
     length 1.2047   
     axis -90 7.62852e-016 20   XYZ
    dof rx
    limits (-90.0 20.0)
  end
  begin
     id 6 
     name rhipjoint
     direction -0.580585 -0.69168 0.429534   
     length 2.52018  
     axis 0 0 0  XYZ 
  end
  begin
     id 7 
     name rfemur
     direction -0.34202 -0.939693 0   
     length 7.0101   
     axis 0 0 -20   XYZ
    dof rx ry rz
    limits (-160.0 20.0)
           (-70.0 70.0)
           (-70.0 60.0)
  end
  begin
     id 8 
     name rtibia
     direction -0.34202 -0.939693 0   
     length 7.70628   
     axis 0 0 -20   XYZ
    dof rx
    limits (-10.0 170.0)
 end
 begin
     id 9 
     name rfoot
     direction -0.0696237 -0.19129 0.979061   
     length 2.52466  
     axis -90 -7.62852e-016 -20   XYZ
    dof rx rz
    limits (-45.0 90.0)
           (-20.0 70.0)
  end
  begin
     id 10 
     name rtoes
     direction -1.53519e-011 -4.21793e-011 1   
     length 1.266   
     axis -90 -7.62852e-016 -20   XYZ
    dof rx
    limits (-90.0 20.0)
  end
  begin
     id 11 
     name lowerback
     direction 0.00381965 0.995707 -0.0924856   
     length 2.20825   
     axis 0 0 0   XYZ
    dof rx ry rz
    limits (-20.0 45.0)
           (-30.0 30.0)
           (-30.0 30.0)
  end
  begin
     id 12 
     name upperback
     direction -0.0139043 0.999634 -0.0231929   
     length 2.21517   
     axis 0 0 0   XYZ
    dof rx ry rz
    limits (-20.0 45.0)
           (-30.0 30.0)
           (-30.0 30.0)
  end
  begin
     id 13 
     name thorax
     direction -0.0143933 0.999691 0.0202892   
     length 2.22911   
     axis 0 0 0   XYZ
    dof rx ry rz
    limits (-20.0 45.0)
           (-30.0 30.0)
           (-30.0 30.0)
  end
  begin
     id 14 
     name lowerneck
     direction -0.0251153 0.981819 0.188153   
     length 1.61782   
     axis 0 0 0   XYZ
    dof rx ry rz
    limits (-20.0 45.0)
           (-30.0 30.0)
           (-30.0 30.0)
  end
  begin
     id 15 
     name upperneck
     direction 0.0563891 0.969357 -0.239095   
     length 1.64526   
     axis 0 0 0   XYZ
    dof rx ry rz
    limits (-20.0 45.0)
           (-30.0 30.0)
           (-30.0 30.0)
  end
  begin
     id 16
     name head
     direction 0.0208328 0.99459 -0.101773  
     length 1.67436  
     axis 0 0 0   XYZ
    dof rx ry rz
    limits (-20.0 45.0)
           (-30.0 30.0)
           (-30.0 30.0)
  end
  begin
     id 17 
     name lclavicle
     direction 0.917689 0.397224 0.00772059  
     length 3.31102  
     axis 0 0 0   XYZ
    dof ry rz
    limits (-20.0 10.0)
           (0.0 20.0)
  end
  begin
     id 18 
     name lhumerus
     direction 1 -4.4896e-011 2.32308e-027   
     length 5.25537   
     axis 180 -30 -90   XYZ
    dof rx ry rz
    limits (-60.0 90.0)
           (-90.0 90.0)
           (-90.0 90.0)
  end
  begin
     id 19
     name lradius
     direction 1 -4.49005e-011 -2.04271e-027   
     length 3.38855   
     axis 180 -30 -90   XYZ
    dof rx
    limits (-10.0 170.0)
  end
  begin
     id 20
     name lwrist
     direction 1 -4.48892e-011 2.56952e-028   
     length 1.69428   
     axis -5.12785e-016 90 90   XYZ
    dof ry
    limits (-180.0 0.0)
 end
  begin
     id 21 
     name lhand
     direction 1 -4.48966e-011 5.13905e-028   
     length 0.614516   
     axis -3.27915e-016 90 90   XYZ
    dof rx rz
    limits (-90.0 90.0)
           (-45.0 45.0)
  end
  begin
     id 22 
     name lfingers
     direction 1 -4.48979e-011 1.02781e-027   
     length 0.495439   
     axis -6.5583e-016 90 90   XYZ
    dof rx
    limits (0.0 90.0)
  end
  begin
     id 23
     name lthumb
     direction 0.707107 -6.35001e-011 0.707107   
     length 0.711354   
     axis -90 45 2.85299e-015   XYZ
    dof rx rz
    limits (-45.0 45.0)
           (-45.0 45.0)
  end
  begin
     id 24 
     name rclavicle
     direction -0.938556 0.342765 -0.0403177   
     length 3.27019  
     axis 0 0 0   XYZ 
    dof ry rz
    limits (-10.0 20.0)
           (-20.0 0.0)
  end
  begin
     id 25 
     name rhumerus
     direction -1 -4.48966e-011 2.52291e-027  
     length 5.38183   
     axis 180 30 90   XYZ
    dof rx ry rz
    limits (-90.0 60.0)
           (-90.0 90.0)
           (-90.0 90.0)
  end
  begin
     id 26 
     name rradius
     direction -1 -4.4896e-011 1.5797e-027   
     length 3.16988   
     axis 180 30 90   XYZ
    dof rx
    limits (-10.0 170.0)
  end
  begin
     id 27 
     name rwrist
     direction -1 -4.48947e-011 2.56952e-028   
     length 1.58494   
     axis -5.12785e-016 -90 -90   XYZ
    dof ry
    limits (-180.0 0.0)
  end
  begin
     id 28
     name rhand
     direction -1 -4.49098e-011 5.13905e-028   
     length 0.637679   
     axis -3.27915e-016 -90 -90   XYZ
    dof rx rz
    limits (-90.0 90.0)
           (-45.0 45.0)
  end
  begin
     id 29
     name rfingers
     direction -1 -4.49026e-011 1.02781e-027   
     length 0.514113   
     axis -6.5583e-016 -90 -90   XYZ
    dof rx
    limits (0.0 90.0)
  end
  begin
     id 30
     name rthumb
     direction -0.707107 -6.3491e-011 0.707107   
     length 0.738167   
     axis -90 -45 -2.85299e-015   XYZ
    dof rx rz
    limits (-45.0 45.0)
           (-45.0 45.0)
  end
:hierarchy
  begin
    root lhipjoint rhipjoint lowerback
    lhipjoint lfemur
    lfemur ltibia
    ltibia lfoot
    lfoot ltoes
    rhipjoint rfemur
    rfemur rtibia
    rtibia rfoot
    rfoot rtoes
    lowerback upperback
    upperback thorax
    thorax lowerneck lclavicle rclavicle
    lowerneck upperneck
    upperneck head
    lclavicle lhumerus
    lhumerus lradius
    lradius lwrist
    lwrist lhand lthumb
    lhand lfingers
    rclavicle rhumerus
    rhumerus rradius
    rradius rwrist
    rwrist rhand rthumb
    rhand rfingers
  end

#!OML:ASF H:\Swim\Project 1\Capture day 1\Session 1\swimmer.ASF
:FULLY-SPECIFIED
:DEGREES
276
root 4.86239 16.9614 -24.4168 9.79843 -3.02602 0.286846
lowerback 3.07758 2.38877 2.31723
upperback 4.55591 3.28502 -3.49654
thorax 3.32173 1.7898 -4.91986
lowerneck -21.0936 -5.30671 -6.69352
upperneck 32.4176 -7.7997 6.96242
head 15.5284 -3.11908 2.57643
rclavicle 7.95139e-015 -1.59028e-014
rhumerus 13.9739 30.5353 -72.5188
rradius 122.574
rwrist 2.75072
rhand -32.7878 33.2913
rfingers 7.12502
rthumb -6.00937 3.39654
lclavicle 7.95139e-015 -1.59028e-014
lhumerus -41.3735 -14.6454 74.5073
lradius 26.148
lwrist -16.0484
lhand -10.8391 -0.533305
lfingers 7.12502
lthumb 15.1755 28.8902
rfemur 6.32177 3.65454 18.9936
rtibia 24.3527
rfoot -21.7172 -19.8353
rtoes -25.9086
lfemur -42.1006 -5.9424 -16.0744
ltibia 42.7554
lfoot -7.0344 3.71249
ltoes 0.519102
277
root 4.898 16.9861 -24.2811 9.86627 -3.02955 0.381454
lowerback 3.11882 2.41287 2.15475
upperback 4.5358 3.31704 -3.57324
thorax 3.27582 1.80086 -4.91034
lowerneck -21.0852 -5.30421 -6.71257
upperneck 32.4994 -7.8189 7.02764
head 15.5724 -3.11964 2.6062
rclavicle 3.55825e-014 -7.95139e-016
rhumerus 13.2385 30.6045 -72.6595
rradius 122.512
rwrist 3.03531
rhand -33.8188 33.9022
rfingers 7.12502
rthumb -7.00462 4.03813
lclavicle 3.55825e-014 -7.95139e-016
lhumerus -41.1025 -14.665 74.5135
lradius 26.1136
lwrist -15.9766
lhand -10.8689 -0.47541
lfingers 7.12502
lthumb 15.1468 28.9503
rfemur 5.65605 2.60076 18.4356
rtibia 25.9798
rfoot -20.7447 -19.0465
rtoes -26.3212
lfemur -41.5475 -6.12176 -16.3664
ltibia 42.6058
lfoot -7.46231 3.91171
ltoes 0.432199
278
root 4.93335 17.0142 -24.1461 9.92856 -3.01592 0.475178
lowerback 3.17909 2.43269 1.98642
upperback 4.52303 3.34301 -3.64383
thorax 3.22543 1.80868 -4.89194
lowerneck -21.1159 -5.31131 -6.73374
upperneck 32.5752 -7.85215 7.10087
head 15.6248 -3.12428 2.63628
rclavicle -7.95139e-016 -1.82882e-014
rhumerus 12.4322 30.6603 -72.8167
rradius 122.446
rwrist 3.14162
rhand -34.8061 34.5665
rfingers 7.12502
rthumb -7.95759 4.73625
lclavicle -7.95139e-016 -1.82882e-014
lhumerus -40.8117 -14.7233 74.546
lradius 26.1449
lwrist -15.8603
lhand -10.9165 -0.410959
lfingers 7.12502
lthumb 15.1009 29.0182
rfemur 4.86663 1.57062 17.8969
rtibia 27.7981
rfoot -19.7038 -18.3423
rtoes -26.2834
lfemur -40.9444 -6.29214 -16.6645
ltibia 42.3768
lfoot -7.89233 4.08013
ltoes 0.452312
279
root 4.9679 17.0451 -24.0121 9.97866 -2.98138 0.568688
lowerback 3.27682 2.45217 1.80869
upperback 4.51586 3.36795 -3.70873
thorax 3.15873 1.81546 -4.86398
lowerneck -21.1919 -5.33042 -6.75237
upperneck 32.6453 -7.90456 7.18231
head 15.6875 -3.13428 2.66484
rclavicle -4.29375e-014 2.06736e-014
rhumerus 11.5387 30.6887 -72.9953
rradius 122.387
rwrist 3.08548
rhand -35.7413 35.1845
rfingers 7.12502
rthumb -8.86014 5.39054
lclavicle -4.29375e-014 2.06736e-014
lhumerus -40.4974 -14.8385 74.6044
lradius 26.237
lwrist -15.6973
lhand -10.9768 -0.346418
lfingers 7.12502
lthumb 15.0428 29.0871
rfemur 3.95999 0.564571 17.387
rtibia 29.7935
rfoot -18.5366 -17.7946
rtoes -25.8678
lfemur -40.2921 -6.44379 -16.969
ltibia 42.075
lfoot -8.30523 4.20357
ltoes 0.617082
280
root 5.00136 17.0777 -23.8789 10.014 -2.92227 0.659785
lowerback 3.40209 2.46129 1.62062
upperback 4.50506 3.37779 -3.75764
thorax 3.0695 1.81368 -4.81493
lowerneck -21.2577 -5.34887 -6.79446
upperneck 32.6939 -7.95045 7.276
head 15.7392 -3.14325 2.70373
rclavicle 1.98785e-015 1.66979e-014
rhumerus 10.5453 30.7149 -73.2025
rradius 122.332
rwrist 2.857
rhand -36.6074 35.7297
rfingers 7.12502
rthumb -9.69587 5.97288
lclavicle 1.98785e-015 1.66979e-014
lhumerus -40.205 -14.9798 74.697
lradius 26.3981
lwrist -15.489
lhand -11.0502 -0.290097
lfingers 7.12502
lthumb 14.9721 29.1487
rfemur 2.94931 -0.40978 16.9153
rtibia 31.9418
rfoot -17.2674 -17.3975
rtoes -24.9663
lfemur -39.5953 -6.56757 -17.278
ltibia 41.712
lfoot -8.69824 4.27107
ltoes 0.869063
281
root 5.03332 17.1114 -23.7465 10.0363 -2.83511 0.755052
lowerback 3.55328 2.45755 1.4105
upperback 4.49133 3.3688 -3.78925
thorax 2.95834 1.80117 -4.73667
lowerneck -21.3227 -5.36652 -6.86374
upperneck 32.7224 -7.98719 7.38079
head 15.7823 -3.15053 2.75356
rclavicle -3.97569e-015 -4.77083e-015
rhumerus 9.46455 30.744 -73.4271
rradius 122.276
rwrist 2.49709
rhand -37.4181 36.0627
rfingers 7.12502
rthumb -10.478 6.34383
lclavicle -3.97569e-015 -4.77083e-015
lhumerus -39.9276 -15.1454 74.8223
lradius 26.6172
lwrist -15.234
lhand -11.1262 -0.244158
lfingers 7.12502
lthumb 14.8989 29.2001
rfemur 1.84238 -1.35616 16.4818
rtibia 34.2169
rfoot -15.8701 -17.1723
rtoes -23.6104
lfemur -38.8623 -6.66353 -17.5958
ltibia 41.2967
lfoot -9.07209 4.2786
ltoes 1.16745
282
root 5.06366 17.1455 -23.6148 10.0497 -2.71805 0.855174
lowerback 3.71554 2.44028 1.17812
upperback 4.47183 3.33982 -3.80125
thorax 2.83059 1.77742 -4.62593
lowerneck -21.3638 -5.38667 -6.97338
upperneck 32.7217 -8.01707 7.50222
head 15.8086 -3.15865 2.8186
rclavicle -3.67752e-014 -3.18055e-015
rhumerus 8.28941 30.778 -73.6732
rradius 122.21
rwrist 2.0326
rhand -38.1633 36.1242
rfingers 7.12502
rthumb -11.1968 6.44298
lclavicle -3.67752e-014 -3.18055e-015
lhumerus -39.6849 -15.3406 74.9864
lradius 26.9072
lwrist -14.9219
lhand -11.1972 -0.192812
lfingers 7.12502
lthumb 14.8305 29.2565
rfemur 0.650387 -2.28032 16.0922
rtibia 36.5862
rfoot -14.364 -17.0726
rtoes -21.8617
lfemur -38.1043 -6.73161 -17.922
ltibia 40.8408
lfoot -9.42616 4.22607
ltoes 1.44982
283
root 5.0921 17.1788 -23.4835 10.0565 -2.57255 0.970158
lowerback 3.87744 2.40835 0.914223
upperback 4.43956 3.28908 -3.79801
thorax 2.68529 1.74139 -4.48151
lowerneck -21.3453 -5.40052 -7.11154
upperneck 32.6842 -8.0286 7.62865
head 15.8031 -3.16399 2.89427
rclavicle -1.88845e-014 3.02153e-014
rhumerus 7.01439 30.8199 -73.9488
rradius 122.126
rwrist 1.4695
rhand -38.8058 35.9547
rfingers 7.12502
rthumb -11.8164 6.30811
lclavicle -1.88845e-014 3.02153e-014
lhumerus -39.4845 -15.5552 75.178
lradius 27.2505
lwrist -14.5692
lhand -11.2588 -0.174098
lfingers 7.12502
lthumb 14.7712 29.2795
rfemur -0.615311 -3.19493 15.7351
rtibia 39.016
rfoot -12.8058 -17.0011
rtoes -19.7614
lfemur -37.3274 -6.78201 -18.2632
ltibia 40.3526
lfoot -9.75921 4.12919
ltoes 1.66531
284
root 5.1187 17.2108 -23.3522 10.0622 -2.39985 1.09868
lowerback 4.02796 2.36586 0.623898
upperback 4.41044 3.22276 -3.78501
thorax 2.54688 1.69713 -4.31113
lowerneck -21.326 -5.41671 -7.25796
upperneck 32.6194 -8.03543 7.7477
head 15.7836 -3.16974 2.96826
rclavicle 5.56597e-014 -6.52014e-014
rhumerus 5.68578 30.8371 -74.239
rradius 121.997
rwrist 0.800543
rhand -39.3018 35.6187
rfingers 7.12502
rthumb -12.2947 6.00015
lclavicle 5.56597e-014 -6.52014e-014
lhumerus -39.2884 -15.8053 75.3855
lradius 27.6439
lwrist -14.1708
lhand -11.3052 -0.16499
lfingers 7.12502
lthumb 14.7265 29.2919
rfemur -1.94109 -4.10281 15.4144
rtibia 41.4697
rfoot -11.2842 -16.8627
rtoes -17.4403
lfemur -36.5409 -6.82656 -18.6124
ltibia 39.8411
lfoot -10.0766 3.99581
ltoes 1.85209
285
root 5.14406 17.2408 -23.2195 10.0577 -2.22769 1.24712
lowerback 4.15734 2.32106 0.308363
upperback 4.39038 3.15241 -3.77061
thorax 2.42882 1.65084 -4.1237
lowerneck -21.3085 -5.43227 -7.39929
upperneck 32.531 -8.03464 7.8491
head 15.751 -3.17427 3.03439
rclavicle -3.77691e-015 9.54166e-015
rhumerus 4.31721 30.8261 -74.5481
rradius 121.801
rwrist 0.0370722
rhand -39.6381 35.2053
rfingers 7.12502
rthumb -12.6189 5.60642
lclavicle -3.77691e-015 9.54166e-015
lhumerus -39.0938 -16.0942 75.6004
lradius 28.0828
lwrist -13.7332
lhand -11.3458 -0.187951
lfingers 7.12502
lthumb 14.6874 29.2718
rfemur -3.30298 -4.98186 15.1112
rtibia 43.9073
rfoot -9.91648 -16.4956
rtoes -15.1797
lfemur -35.7315 -6.8795 -18.9755
ltibia 39.3129
lfoot -10.3839 3.86618
ltoes 2.01699
286
root 5.16811 17.2686 -23.0856 10.047 -2.05253 1.42133
lowerback 4.25827 2.26841 -0.0322209
upperback 4.38083 3.07111 -3.75879
thorax 2.33665 1.59914 -3.92307
lowerneck -21.2979 -5.44314 -7.53223
upperneck 32.4265 -8.02006 7.92831
head 15.7089 -3.17502 3.09153
rclavicle 1.31198e-014 -2.54444e-014
rhumerus 2.9305 30.7799 -74.876
rradius 121.517
rwrist -0.842278
rhand -39.7501 34.8274
rfingers 7.12502
rthumb -12.7269 5.23526
lclavicle 1.31198e-014 -2.54444e-014
lhumerus -38.8982 -16.4074 75.8137
lradius 28.5623
lwrist -13.2711
lhand -11.3881 -0.210281
lfingers 7.12502
lthumb 14.6466 29.2524
rfemur -4.69342 -5.82343 14.8209
rtibia 46.2884
rfoot -8.76771 -15.8204
rtoes -13.3396
lfemur -34.9081 -6.94401 -19.3599
ltibia 38.7756
lfoot -10.6794 3.74483
ltoes 2.11988
287
root 5.19104 17.2942 -22.9504 10.0312 -1.87817 1.62259
lowerback 4.33833 2.2123 -0.390459
upperback 4.381 2.98508 -3.75702
thorax 2.26686 1.54534 -3.72168
lowerneck -21.312 -5.45422 -7.64627
upperneck 32.3224 -8.00272 7.98351
head 15.6699 -3.17489 3.13513
rclavicle -2.76311e-014 -7.95139e-015
rhumerus 1.53098 30.7072 -75.2262
rradius 121.139
rwrist -1.75814
rhand -39.6576 34.384
rfingers 7.12502
rthumb -12.6377 4.78635
lclavicle -2.76311e-014 -7.95139e-015
lhumerus -38.6957 -16.7698 76.0217
lradius 29.0808
lwrist -12.7846
lhand -11.4402 -0.230434
lfingers 7.12502
lthumb 14.5964 29.2359
rfemur -6.1057 -6.61209 14.5415
rtibia 48.5737
rfoot -7.86571 -14.7733
rtoes -12.1486
lfemur -34.0751 -7.03257 -19.7634
ltibia 38.2359
lfoot -10.9702 3.63779
ltoes 2.26334
288
root 5.21302 17.3177 -22.8144 10.0129 -1.69871 1.84785
lowerback 4.39543 2.14677 -0.756025
upperback 4.38413 2.88672 -3.76445
thorax 2.21373 1.48571 -3.52438
lowerneck -21.3186 -5.45906 -7.74963
upperneck 32.2173 -7.97343 8.01934
head 15.6256 -3.1713 3.17092
rclavicle 3.95581e-014 -2.62396e-014
rhumerus 0.112075 30.6339 -75.6071
rradius 120.662
rwrist -2.65088
rhand -39.3657 33.7849
rfingers 7.12502
rthumb -12.3563 4.17007
lclavicle 3.95581e-014 -2.62396e-014
lhumerus -38.4999 -17.1647 76.2229
lradius 29.6307
lwrist -12.2949
lhand -11.5134 -0.237769
lfingers 7.12502
lthumb 14.5259 29.2337
rfemur -7.53724 -7.34299 14.278
rtibia 50.7284
rfoot -7.22617 -13.3345
rtoes -11.6747
lfemur -33.2411 -7.14254 -20.186
ltibia 37.7028
lfoot -11.2579 3.56143
ltoes 2.31879
289
root 5.23389 17.339 -22.6784 9.99699 -1.50129 2.09406
lowerback 4.44453 2.06611 -1.12388
upperback 4.38439 2.76807 -3.78067
thorax 2.16289 1.41623 -3.33412
lowerneck -21.3253 -5.4558 -7.84018
upperneck 32.1216 -7.93075 8.03585
head 15.5824 -3.16311 3.19914
rclavicle 2.66371e-014 -2.06736e-014
rhumerus -1.31185 30.5691 -76.0151
rradius 120.076
rwrist -3.46382
rhand -38.8902 33.1065
rfingers 7.12502
rthumb -11.8978 3.46458
lclavicle 2.66371e-014 -2.06736e-014
lhumerus -38.3042 -17.59 76.4146
lradius 30.1976
lwrist -11.8132
lhand -11.6127 -0.223481
lfingers 7.12502
lthumb 14.4302 29.2548
rfemur -8.99274 -8.02218 14.04
rtibia 52.7268
rfoot -6.80251 -11.562
rtoes -11.8655
lfemur -32.4189 -7.27811 -20.6223
ltibia 37.1865
lfoot -11.5447 3.50655
ltoes 2.30735
290
root 5.25373 17.3582 -22.543 9.98637 -1.28348 2.34307
lowerback 4.49053 1.97026 -1.47533
upperback 4.38533 2.62953 -3.8007
thorax 2.11619 1.33755 -3.1563
lowerneck -21.3515 -5.4519 -7.92467
upperneck 32.04 -7.88497 8.04026
head 15.5491 -3.15394 3.22191
rclavicle 1.21259e-014 -1.90833e-014
rhumerus -2.72408 30.5078 -76.4425
rradius 119.376
rwrist -4.15117
rhand -38.2514 32.3159
rfingers 7.12502
rthumb -11.2818 2.63926
lclavicle 1.21259e-014 -1.90833e-014
lhumerus -38.0923 -18.0428 76.5936
lradius 30.7764
lwrist -11.3484
lhand -11.7393 -0.172502
lfingers 7.12502
lthumb 14.3082 29.3145
rfemur -10.4719 -8.64637 13.8555
rtibia 54.5497
rfoot -6.56393 -9.54171
rtoes -12.5242
lfemur -31.621 -7.43171 -21.0531
ltibia 36.6999
lfoot -11.8353 3.46902
ltoes 2.22295
